<svg xmlns="http://www.w3.org/2000/svg" height="24" viewBox="0 -960 960 960" width="24"><path stroke-width="4" stroke="#000000" fill="#ffffff" d="M373.847-293.078 416-335.231l-72.77-72.77h273.54L544-335.231l42.153 42.153 146.153-146.153-146.153-146.153L544-543.231l74.001 75.232H341.999L416-543.231l-42.153-42.153-146.153 146.153 146.153 146.153ZM172.309-140.001q-30.308 0-51.308-21t-21-51.308v-455.382q0-30.308 21-51.308t51.308-21h122.153l74-80h223.076l74 80h122.153q30.308 0 51.308 21t21 51.308v455.382q0 30.308-21 51.308t-51.308 21H172.309Zm0-59.999h615.382q5.385 0 8.847-3.462 3.462-3.462 3.462-8.847v-455.382q0-5.385-3.462-8.847-3.462-3.462-8.847-3.462H638.769l-73.384-80h-170.77l-73.384 80H172.309q-5.385 0-8.847 3.462-3.462 3.462-3.462 8.847v455.382q0 5.385 3.462 8.847 3.462 3.462 8.847 3.462ZM480-440Z"/></svg>