<svg xmlns="http://www.w3.org/2000/svg" height="40" viewBox="0 -960 960 960" width="40"><path stroke-width="4" stroke="#000000" fill="#ffffff" d="m378.719-293.078 36.871-37.691-83.181-83.591h294.515l-83.334 83.591 37.691 37.691 144.255-144.255-144.255-144.666-36.871 36.871 82.257 81.59H332.256l82.257-81.59-35.794-37.281-144.255 145.076 144.255 144.255ZM162.565-140.001q-25.788 0-44.176-18.388t-18.388-44.176V-674.05q0-25.436 18.388-44t44.176-18.564h132.307l73.59-83.385h223.076l73.59 83.385h132.307q25.436 0 44 18.564t18.564 44v471.485q0 25.788-18.564 44.176t-44 18.388h-634.87Zm0-50.255h634.87q5.385 0 8.847-3.462 3.462-3.462 3.462-8.847V-674.05q0-5.129-3.462-8.719t-8.847-3.59H642.154l-73.385-83.385H391.231l-73.385 83.385H162.565q-5.385 0-8.847 3.59-3.462 3.59-3.462 8.719v471.485q0 5.385 3.462 8.847 3.462 3.462 8.847 3.462ZM480-438.513Z"/></svg>