<svg xmlns="http://www.w3.org/2000/svg" height="24" viewBox="0 -960 960 960" width="24"><path stroke-width="4" stroke="#000000" fill="#ffffff" d="M200-200h50.461l409.463-409.463-50.461-50.461L200-250.461V-200Zm-59.999 59.999v-135.383l527.616-527.384q9.073-8.241 20.036-12.736 10.963-4.495 22.993-4.495 12.029 0 23.307 4.27 11.277 4.269 19.969 13.576l48.846 49.461q9.308 8.692 13.269 20.004 3.962 11.311 3.962 22.622 0 12.065-4.121 23.028-4.12 10.964-13.11 20.037l-527.384 527H140.001Zm620.384-570.153-50.231-50.231 50.231 50.231Zm-126.134 75.903-24.788-25.673 50.461 50.461-25.673-24.788Z"/></svg>