<!DOCTYPE svg PUBLIC "-//W3C//DTD SVG 1.1//EN" "http://www.w3.org/Graphics/SVG/1.1/DTD/svg11.dtd">
<!-- Uploaded to: SVG Repo, www.svgrepo.com, Transformed by: SVG Repo Mixer Tools -->
<svg fill="#000000" height="64px" width="64px" version="1.1" id="Layer_1" xmlns="http://www.w3.org/2000/svg" xmlns:xlink="http://www.w3.org/1999/xlink" viewBox="0 0 512 512" xml:space="preserve" stroke="#000000">
<g id="SVGRepo_bgCarrier" stroke-width="0"/>
<g id="SVGRepo_tracerCarrier" stroke-linecap="round" stroke-linejoin="round"/>
<g id="SVGRepo_iconCarrier"> <g> <g> <path fill="#ffffff" stroke-width="4" stroke="#000000" d="M255.633,0C145.341,0.198,55.994,89.667,55.994,200.006v278.66c0,14.849,17.953,22.285,28.453,11.786l38.216-39.328 l54.883,55.994c6.51,6.509,17.063,6.509,23.572,0L256,451.124l54.883,55.994c6.509,6.509,17.062,6.509,23.571,0l54.884-55.994 l38.216,39.327c10.499,10.499,28.453,3.063,28.453-11.786V201.719C456.006,91.512,365.84-0.197,255.633,0z M172.664,266.674 c-27.572,0-50.001-22.429-50.001-50.001s22.43-50.001,50.001-50.001s50.001,22.43,50.001,50.001S200.236,266.674,172.664,266.674z M339.336,266.674c-27.572,0-50.001-22.429-50.001-50.001s22.43-50.001,50.001-50.001s50.001,22.43,50.001,50.001 S366.908,266.674,339.336,266.674z"/> </g> </g> </g>
</svg>