<svg xmlns="http://www.w3.org/2000/svg" height="40" viewBox="0 -960 960 960" width="40"><path fill="#ffffff" stroke-width="4" stroke="#000000" d="M356.513-430.256h379.793L615.128-591.435l-104 134.257-68.462-80.667-86.153 107.589ZM122.565-144.617q-25.705 0-44.134-18.43Q60-181.476 60-207.181v-501.023h50.255v501.023q0 5.385 3.462 8.847 3.462 3.462 8.847 3.462h676.921v50.255H122.565Zm120.511-120.511q-25.705 0-44.134-18.43-18.429-18.429-18.429-44.134v-469.743q0-25.705 18.429-44.134 18.429-18.43 44.134-18.43h218.718l80 80h295.641q25.705 0 44.134 18.43 18.43 18.429 18.43 44.134v389.743q0 25.705-18.43 44.134-18.429 18.43-44.134 18.43H243.076Zm0-50.255h594.359q5.385 0 8.847-3.462 3.462-3.462 3.462-8.847v-389.743q0-5.385-3.462-8.847-3.462-3.462-8.847-3.462H521.051l-80-80H243.076q-5.385 0-8.847 3.462-3.461 3.462-3.461 8.847v469.743q0 5.385 3.461 8.847 3.462 3.462 8.847 3.462Zm-12.308 0v-494.361 494.361Z"/></svg>