<svg xmlns="http://www.w3.org/2000/svg" height="40" viewBox="0 -960 960 960" width="40"><path stroke-width="4" stroke="#000000" fill="#ffffff" d="M479.97-403.333q-31.637 0-54.137-22.53-22.5-22.529-22.5-54.167 0-31.637 22.53-54.137 22.529-22.5 54.167-22.5 31.637 0 54.137 22.53 22.5 22.529 22.5 54.167 0 31.637-22.53 54.137-22.529 22.5-54.167 22.5ZM480-120q-146.334 0-250.334-100.834-104-100.833-108.999-246.5H188q4.666 118 89.166 199.334T480-186.666q122.572 0 207.953-85.381T773.334-480q0-122.572-85.381-207.953T480-773.334q-69 0-129 31t-103.667 84.333h106v66.667H134.667V-810h66.666v102q52.334-62.667 124.978-97.333Q398.955-840 480-840q75 0 140.5 28.5t114 77q48.5 48.5 77 114T840-480q0 75-28.5 140.5t-77 114q-48.5 48.5-114 77T480-120Z"/></svg>